<svg width="16.515137" height="25.000031" viewBox="0 0 16.5151 25" fill="none" xmlns="http://www.w3.org/2000/svg" xmlns:xlink="http://www.w3.org/1999/xlink">
	<defs/>
	<rect id="Frame 2080" rx="-1.892180" width="12.730658" height="21.215641" transform="translate(1.892180 1.892180)" fill="#FFFFFF" fill-opacity="0"/>
	<path id="path0 fill" d="M4.12 25C6.4 25 8.25 23.13 8.25 20.83L8.25 16.66L4.12 16.66C1.84 16.66 0 18.53 0 20.83C0 23.13 1.84 25 4.12 25Z" fill="#23C881" fill-opacity="1.000000" fill-rule="nonzero"/>
	<path id="path1 fill" d="M0 12.49C0 10.19 1.84 8.33 4.12 8.33L8.25 8.33L8.25 16.66L4.12 16.66C1.84 16.66 0 14.79 0 12.49Z" fill="#9C5DF4" fill-opacity="1.000000" fill-rule="nonzero"/>
	<path id="path1 fill 1" d="M0 4.16C0 1.86 1.85 0 4.12 0L8.25 0L8.25 8.33L4.12 8.33C1.85 8.33 0 6.46 0 4.16Z" fill="#F04F2B" fill-opacity="1.000000" fill-rule="nonzero"/>
	<path id="path2 fill" d="M8.25 0L12.38 0C14.66 0 16.51 1.86 16.51 4.16C16.51 6.46 14.66 8.33 12.38 8.33L8.25 8.33L8.25 0Z" fill="#FD7366" fill-opacity="1.000000" fill-rule="nonzero"/>
	<path id="path3 fill" d="M16.51 12.49C16.51 14.79 14.66 16.66 12.38 16.66C10.1 16.66 8.25 14.79 8.25 12.49C8.25 10.19 10.1 8.33 12.38 8.33C14.66 8.33 16.51 10.19 16.51 12.49Z" fill="#2AB3EE" fill-opacity="1.000000" fill-rule="nonzero"/>
</svg>
