<svg width="44.000488" height="44.000000" viewBox="0 0 44.0005 44" fill="none" xmlns="http://www.w3.org/2000/svg" xmlns:xlink="http://www.w3.org/1999/xlink">
	<defs>
		<clipPath id="clip19_66">
			<rect id="Frame" rx="-0.029834" width="43.940586" height="43.940331" transform="translate(0.029834 0.029834)" fill="white" fill-opacity="0"/>
		</clipPath>
		<linearGradient x1="2.500000" y1="22.000000" x2="17.937500" y2="22.000000" id="paint_linear_19_68_0" gradientUnits="userSpaceOnUse">
			<stop stop-color="#7A87FB"/>
			<stop offset="1.000000" stop-color="#FFD49C"/>
		</linearGradient>
		<linearGradient x1="19.274414" y1="15.780490" x2="29.103043" y2="15.780490" id="paint_linear_19_69_0" gradientUnits="userSpaceOnUse">
			<stop stop-color="#7A87FB"/>
			<stop offset="1.000000" stop-color="#FFD49C"/>
		</linearGradient>
		<linearGradient x1="19.274414" y1="31.537848" x2="41.500221" y2="31.537848" id="paint_linear_19_70_0" gradientUnits="userSpaceOnUse">
			<stop stop-color="#7A87FB"/>
			<stop offset="1.000000" stop-color="#FFD49C"/>
		</linearGradient>
	</defs>
	<rect id="Frame" rx="-0.029834" width="43.940586" height="43.940331" transform="translate(0.029834 0.029834)" fill="#FFFFFF" fill-opacity="0"/>
	<g clip-path="url(#clip19_66)">
		<path id="Vector" d="M17.93 37C9.41 37 2.5 30.1 2.5 21.6L2.5 7C11.01 7 17.93 13.89 17.93 22.39L17.93 37Z" fill="url(#paint_linear_19_68_0)" fill-opacity="1.000000" fill-rule="evenodd"/>
		<path id="Vector" d="M19.27 24.56L19.27 16.79C19.27 11.39 23.67 7 29.1 7L29.1 14.76C29.1 20.17 24.69 24.56 19.27 24.56Z" fill="url(#paint_linear_19_69_0)" fill-opacity="1.000000" fill-rule="evenodd"/>
		<path id="Vector" d="M41.5 36.99L30.23 36.99C24.17 36.99 19.27 32.11 19.27 26.07L30.54 26.07C36.59 26.07 41.5 30.96 41.5 36.99Z" fill="url(#paint_linear_19_70_0)" fill-opacity="1.000000" fill-rule="evenodd"/>
	</g>
</svg>
