<svg width="20.000000" height="20.000000" viewBox="0 0 20 20" fill="none" xmlns="http://www.w3.org/2000/svg" xmlns:xlink="http://www.w3.org/1999/xlink">
	<defs>
		<clipPath id="clip19_510">
			<rect id="Home Icom" rx="-0.500000" width="19.000000" height="19.000000" transform="translate(0.500000 0.500000)" fill="white" fill-opacity="0"/>
		</clipPath>
	</defs>
	<g clip-path="url(#clip19_510)">
		<path id="Vector" d="M8.33 18.33C5.19 18.33 3.61 18.33 2.64 17.32C1.66 16.31 1.66 14.68 1.66 11.43L1.66 10.16C1.66 8.26 1.66 7.3 2.09 6.51C2.53 5.72 3.32 5.23 4.9 4.25L6.57 3.22C8.24 2.18 9.07 1.66 10 1.66C10.92 1.66 11.75 2.18 13.43 3.22L15.09 4.25C16.67 5.23 17.46 5.72 17.9 6.51C18.33 7.3 18.33 8.26 18.33 10.16L18.33 11.43C18.33 14.68 18.33 16.31 17.35 17.32C16.38 18.33 14.8 18.33 11.66 18.33L8.33 18.33Z" stroke="#FFFFFF" stroke-opacity="1.000000" stroke-width="1.500000"/>
		<path id="Vector" d="M10 12.5L10 15" stroke="#FFFFFF" stroke-opacity="1.000000" stroke-width="1.500000" stroke-linecap="round"/>
	</g>
</svg>
